<svg width="92" height="100" viewBox="0 0 92 100" fill="none" xmlns="http://www.w3.org/2000/svg">
<path d="M82.5711 51.4045C81.5816 50.8455 80.5445 50.3755 79.4719 50C80.5445 49.6245 81.5816 49.1545 82.5711 48.5955C84.5349 47.4613 86.2563 45.9513 87.6368 44.1518C89.0173 42.3522 90.0299 40.2982 90.6169 38.1072C91.2038 35.9162 91.3536 33.6309 91.0576 31.382C90.7617 29.1331 90.0258 26.9645 88.892 25C87.7581 23.0355 86.2486 21.3137 84.4496 19.9328C82.6505 18.5519 80.5971 17.539 78.4067 16.9519C76.2163 16.3647 73.9317 16.2149 71.6834 16.511C69.4352 16.807 67.2672 17.5431 65.3033 18.6773C64.3269 19.257 63.4025 19.92 62.5404 20.6591C62.7494 19.5421 62.8604 18.409 62.8722 17.2727C62.8722 12.6917 61.0529 8.29833 57.8146 5.05906C54.5762 1.8198 50.1841 0 45.6044 0C41.0247 0 36.6326 1.8198 33.3942 5.05906C30.1559 8.29833 28.3366 12.6917 28.3366 17.2727C28.3484 18.409 28.4594 19.5421 28.6684 20.6591C27.8063 19.92 26.8819 19.257 25.9055 18.6773C21.9393 16.3868 17.2258 15.7661 12.8021 16.9519C8.37833 18.1376 4.60668 21.0326 2.31684 25C0.0269871 28.9674 -0.593485 33.6822 0.591915 38.1072C1.77732 42.5322 4.67149 46.305 8.63775 48.5955C9.62718 49.1545 10.6643 49.6245 11.7369 50C10.6643 50.3755 9.62718 50.8455 8.63775 51.4045C5.67917 53.1122 3.29335 55.6591 1.78208 58.7233C0.270808 61.7874 -0.298015 65.231 0.147562 68.6186C0.593138 72.0061 2.0331 75.1854 4.28529 77.7542C6.53748 80.323 9.50073 82.166 12.8002 83.05C14.2676 83.4429 15.7799 83.643 17.2989 83.6455C20.3221 83.6419 23.2908 82.8407 25.9055 81.3227C26.8819 80.743 27.8063 80.08 28.6684 79.3409C28.4594 80.4579 28.3484 81.591 28.3366 82.7273C28.3366 87.3083 30.1559 91.7017 33.3942 94.9409C36.6326 98.1802 41.0247 100 45.6044 100C50.1841 100 54.5762 98.1802 57.8146 94.9409C61.0529 91.7017 62.8722 87.3083 62.8722 82.7273C62.8604 81.591 62.7494 80.4579 62.5404 79.3409C63.4025 80.08 64.3269 80.743 65.3033 81.3227C67.9189 82.8375 70.8876 83.6356 73.9099 83.6364C75.4289 83.6339 76.9412 83.4338 78.4086 83.0409C81.7081 82.1569 84.6713 80.3139 86.9235 77.7451C89.1757 75.1763 90.6157 71.997 91.0612 68.6095C91.5068 65.2219 90.938 61.7783 89.4267 58.7142C87.9155 55.65 85.5296 53.1031 82.5711 51.3955V51.4045ZM68.0298 23.4C69.3747 22.5617 70.8745 22.0027 72.4399 21.7561C74.0052 21.5095 75.6042 21.5804 77.1416 21.9646C78.679 22.3488 80.1235 23.0384 81.389 23.9925C82.6545 24.9465 83.7152 26.1455 84.5079 27.518C85.3007 28.8905 85.8093 30.4085 86.0036 31.9816C86.1979 33.5548 86.0737 35.151 85.6386 36.6752C85.2036 38.1994 84.4664 39.6205 83.471 40.8538C82.4756 42.0872 81.2423 43.1077 79.8446 43.8545C77.677 45.1045 73.0647 46.65 63.3039 47.25L62.6495 47.2136C61.9634 43.0536 59.7798 39.2883 56.5104 36.6273L56.8103 36.0318C62.2178 27.8773 65.8622 24.6545 68.0298 23.4ZM45.6044 61.8182C43.2677 61.8182 40.9834 61.1251 39.0405 59.8265C37.0975 58.5279 35.5832 56.6821 34.689 54.5226C33.7947 52.3631 33.5607 49.9869 34.0166 47.6944C34.4725 45.4019 35.5978 43.2961 37.2501 41.6433C38.9024 39.9905 41.0076 38.8649 43.2994 38.4089C45.5913 37.9529 47.9669 38.1869 50.1257 39.0814C52.2846 39.9759 54.1298 41.4907 55.428 43.4342C56.7263 45.3777 57.4192 47.6626 57.4192 50C57.4192 53.1344 56.1744 56.1404 53.9587 58.3567C51.743 60.5731 48.7379 61.8182 45.6044 61.8182ZM45.6044 5.45455C48.7379 5.45455 51.743 6.69967 53.9587 8.91601C56.1744 11.1323 57.4192 14.1384 57.4192 17.2727C57.4192 19.7773 56.4513 24.5455 52.0889 33.3045C51.9708 33.4864 51.8481 33.6682 51.7299 33.8545C47.779 32.3471 43.4116 32.3471 39.4607 33.8545L39.1017 33.3C34.7575 24.5455 33.7896 19.7773 33.7896 17.2727C33.7896 14.1384 35.0344 11.1323 37.2501 8.91601C39.4658 6.69967 42.4709 5.45455 45.6044 5.45455ZM11.3642 43.8727C8.76262 42.2512 6.89288 39.6817 6.1499 36.7069C5.40691 33.7321 5.84885 30.5849 7.38237 27.93C8.91588 25.2751 11.4209 23.3203 14.3685 22.4784C17.316 21.6365 20.4753 21.9735 23.179 23.4182C25.3466 24.6727 28.991 27.8955 34.3894 36.05L34.6894 36.6455C31.4195 39.3125 29.2389 43.0847 28.5593 47.25L27.9049 47.2864C18.1441 46.6682 13.5318 45.1227 11.3642 43.8727ZM23.179 76.6C20.4753 78.0447 17.316 78.3817 14.3685 77.5398C11.4209 76.6979 8.91588 74.7431 7.38237 72.0882C5.84885 69.4332 5.40691 66.2861 6.1499 63.3113C6.89288 60.3365 8.76262 57.767 11.3642 56.1455C13.5318 54.8955 18.1441 53.35 27.9049 52.75L28.5593 52.7864C29.2454 56.9464 31.429 60.7117 34.6984 63.3727L34.3985 63.9682C28.991 72.1227 25.3466 75.3455 23.179 76.6ZM45.6044 94.5455C44.0529 94.5455 42.5165 94.2398 41.0831 93.6459C39.6496 93.0519 38.3472 92.1814 37.2501 91.084C36.153 89.9866 35.2827 88.6837 34.689 87.2499C34.0952 85.8161 33.7896 84.2793 33.7896 82.7273C33.7896 80.2227 34.7575 75.4546 39.1199 66.6955C39.238 66.5136 39.3607 66.3318 39.4789 66.1455C43.4298 67.6529 47.7972 67.6529 51.7481 66.1455L52.1071 66.7C56.4513 75.4546 57.4192 80.2227 57.4192 82.7273C57.4192 84.2793 57.1136 85.8161 56.5198 87.2499C55.9261 88.6837 55.0558 89.9866 53.9587 91.084C52.8616 92.1814 51.5592 93.0519 50.1257 93.6459C48.6923 94.2398 47.1559 94.5455 45.6044 94.5455ZM84.1706 72.2727C83.395 73.6171 82.3621 74.7955 81.1312 75.7406C79.9002 76.6856 78.4951 77.3789 76.9963 77.7807C75.4974 78.1826 73.9341 78.2851 72.3956 78.0825C70.8571 77.8799 69.3736 77.3762 68.0298 76.6C65.8622 75.3455 62.2178 72.1227 56.8194 63.9682L56.5194 63.3727C59.7893 60.7057 61.9699 56.9334 62.6495 52.7682L63.3266 52.7273C73.0874 53.3273 77.6997 54.8727 79.8673 56.1227C81.21 56.9005 82.3864 57.9352 83.3293 59.1677C84.2723 60.4003 84.9633 61.8065 85.3629 63.3062C85.7625 64.8059 85.8628 66.3696 85.6583 67.9081C85.4537 69.4466 84.9482 70.9297 84.1706 72.2727Z" fill="black"/>
</svg>
