<svg width="106" height="27" viewBox="0 0 106 27" fill="none" xmlns="http://www.w3.org/2000/svg">
<path d="M16.5449 15.4004H5.57617V26H0.619141V0.40625H17.916V4.43164H5.57617V11.3926H16.5449V15.4004ZM27.2148 22.0098H39.2031V26H22.2578V0.40625H27.2148V22.0098ZM61.4043 15.084C61.4043 16.1855 61.3047 17.2344 61.1055 18.2305C60.9062 19.2148 60.6191 20.1289 60.2441 20.9727C59.8457 21.8164 59.3535 22.5898 58.7676 23.293C58.1816 23.9961 57.5137 24.582 56.7637 25.0508C56.084 25.4609 55.334 25.7773 54.5137 26C53.7051 26.2344 52.832 26.3516 51.8945 26.3516C50.8984 26.3516 49.9785 26.2227 49.1348 25.9648C48.291 25.707 47.5234 25.3438 46.832 24.875C46.1523 24.3828 45.543 23.791 45.0039 23.0996C44.4648 22.3965 44.0137 21.6055 43.6504 20.7266C43.3223 19.918 43.0703 19.0391 42.8945 18.0898C42.7305 17.1406 42.6484 16.1387 42.6484 15.084V11.3574C42.6484 10.2324 42.7422 9.16602 42.9297 8.1582C43.1289 7.15039 43.416 6.21875 43.791 5.36328C44.1543 4.55469 44.5938 3.82227 45.1094 3.16602C45.6367 2.50977 46.2402 1.94727 46.9199 1.47852C47.5879 1.02148 48.3379 0.669922 49.1699 0.423828C50.002 0.177734 50.9043 0.0546875 51.877 0.0546875C52.8613 0.0546875 53.7812 0.183594 54.6367 0.441406C55.5039 0.6875 56.2832 1.04492 56.9746 1.51367C57.666 1.95898 58.2695 2.49805 58.7852 3.13086C59.3125 3.76367 59.7637 4.46094 60.1387 5.22266C60.5488 6.08984 60.8594 7.03906 61.0703 8.07031C61.293 9.10156 61.4043 10.1973 61.4043 11.3574V15.084ZM56.3945 11.3223C56.3945 10.666 56.3594 10.0449 56.2891 9.45898C56.2305 8.86133 56.1309 8.31055 55.9902 7.80664C55.8145 7.17383 55.5801 6.61133 55.2871 6.11914C54.9941 5.61523 54.6484 5.20508 54.25 4.88867C53.9336 4.6543 53.5762 4.47266 53.1777 4.34375C52.791 4.21484 52.3574 4.15039 51.877 4.15039C51.4199 4.15039 51.0039 4.20898 50.6289 4.32617C50.2656 4.44336 49.9375 4.61328 49.6445 4.83594C49.2461 5.16406 48.9062 5.57422 48.625 6.06641C48.3555 6.55859 48.1445 7.13281 47.9922 7.78906C47.875 8.29297 47.7871 8.84375 47.7285 9.44141C47.6816 10.0391 47.6582 10.666 47.6582 11.3223V15.084C47.6582 15.7051 47.6816 16.3027 47.7285 16.877C47.7754 17.4512 47.8574 17.9844 47.9746 18.4766C48.1035 19.0977 48.291 19.666 48.5371 20.1816C48.7949 20.6855 49.0938 21.0957 49.4336 21.4121C49.75 21.6934 50.1074 21.9102 50.5059 22.0625C50.916 22.2148 51.3789 22.291 51.8945 22.291C52.3867 22.291 52.8379 22.2207 53.248 22.0801C53.6582 21.9395 54.0215 21.7344 54.3379 21.4648C54.7363 21.1367 55.0703 20.7266 55.3398 20.2344C55.6211 19.7305 55.8438 19.1621 56.0078 18.5293C56.1367 18.0371 56.2305 17.498 56.2891 16.9121C56.3594 16.3262 56.3945 15.7168 56.3945 15.084V11.3223Z" fill="#ED241A"/>
<path d="M80.916 14.7852H70.4043V22.0098H82.6914V26H65.4473V0.40625H82.6387V4.43164H70.4043V10.8828H80.916V14.7852ZM95.4531 9.58203L100.006 0.40625H105.807L98.5996 13.0977L105.982 26H100.217L95.5234 16.6836L90.8477 26H85.0117L92.3945 13.0977L85.2051 0.40625H90.9707L95.4531 9.58203Z" fill="#A2A2A2"/>
</svg>
